# xmcd CD database file
#
# Track frame offsets:
#	150
#	12875
#	26133
#	36512
#	44693
#	55934
#	69732
#	82347
#	94710
#	103550
#	116258
#	128612
#	139989
#	151166
#	165508
#
# Disc length: 2524 seconds
#
# Revision: 0
# Processed by: cddbd v1.4PL0 Copyright (c) Steve Scherf et al.
# Submitted via: CDex 1.50beta10
#
DISCID=ca09da0f
DTITLE=Willie Nelson - Blame it on the Times
DYEAR=2001
DGENRE=Country
TTITLE0=I Just Don't Understand
TTITLE1=You'll Always Have Someone
TTITLE2=Blame it on the Times
TTITLE3=You Wouldn't Cross the Street to Say Goodbye
TTITLE4=Suffer in Silence
TTITLE5=Home is Where You're Happy
TTITLE6=I Can't Find the Time
TTITLE7=Shelter of your Arms
TTITLE8=Why Are You Always Picking on Me
TTITLE9=Any Ole Arms Won't Do
TTITLE10=Following Me Around
TTITLE11=I Don't Feel Anything
TTITLE12=Who Do I Know in Dallas
TTITLE13=So Much to Do
TTITLE14=Medley
EXTD=YEAR: 2001
EXTT0=
EXTT1=
EXTT2=
EXTT3=
EXTT4=
EXTT5=
EXTT6=
EXTT7=
EXTT8=
EXTT9=
EXTT10=
EXTT11=
EXTT12=
EXTT13=
EXTT14=
PLAYORDER=
